%FSLAX34Y34*%
%MOMM*%
%LNCOPPER_TOP*%
G71*
G01*
%ADD10C, 2.10*%
%ADD11R, 1.60X1.50*%
%ADD12R, 1.50X1.60*%
%ADD13C, 0.90*%
%ADD14C, 2.70*%
%ADD15C, 2.90*%
%ADD16C, 0.50*%
%ADD17C, 0.37*%
%ADD18C, 0.77*%
%ADD19C, 1.50*%
%ADD20R, 1.20X1.10*%
%ADD21R, 1.10X1.20*%
%ADD22C, 2.30*%
%ADD23C, 0.10*%
%LPD*%
G36*
X0Y1000000D02*
X257000Y1000000D01*
X257000Y870000D01*
X0Y870000D01*
X0Y1000000D01*
G37*
%LPC*%
X13099Y986634D02*
G54D10*
D03*
X13097Y910431D02*
G54D10*
D03*
X13097Y885031D02*
G54D10*
D03*
X241697Y986631D02*
G54D10*
D03*
X241697Y961231D02*
G54D10*
D03*
X241697Y935831D02*
G54D10*
D03*
X241697Y910431D02*
G54D10*
D03*
X241697Y885031D02*
G54D10*
D03*
X76366Y926869D02*
G54D11*
D03*
X76366Y909869D02*
G54D11*
D03*
X38830Y910497D02*
G54D12*
D03*
G36*
X48330Y918497D02*
X63330Y918497D01*
X63330Y902497D01*
X48330Y902497D01*
X48330Y918497D01*
G37*
G54D13*
X13097Y910431D02*
X38764Y910431D01*
X38830Y910497D01*
G54D13*
X55830Y910497D02*
X75738Y910497D01*
X76366Y909869D01*
X76369Y926874D02*
G54D11*
D03*
X136460Y962422D02*
G54D12*
D03*
X119460Y962422D02*
G54D12*
D03*
X136460Y942182D02*
G54D12*
D03*
X119460Y942182D02*
G54D12*
D03*
G54D13*
X119460Y962422D02*
X119460Y942182D01*
X136460Y910432D02*
G54D12*
D03*
X119460Y910432D02*
G54D12*
D03*
G54D13*
X76366Y909869D02*
X118898Y909869D01*
X119460Y910432D01*
G54D13*
X136460Y910432D02*
X136460Y942182D01*
G54D14*
X78771Y964212D02*
X62508Y980476D01*
G54D15*
X176415Y964212D02*
X192678Y980475D01*
G54D13*
X136460Y962422D02*
X174625Y962422D01*
X184546Y972344D01*
G54D13*
X136460Y910432D02*
X180181Y910432D01*
X205978Y884634D01*
X241300Y884634D01*
X241697Y885031D01*
X211700Y935666D02*
G54D11*
D03*
X211700Y952666D02*
G54D11*
D03*
G54D13*
X241697Y935831D02*
X211072Y935831D01*
X210906Y935666D01*
G54D13*
X210906Y952666D02*
X204224Y952666D01*
X184546Y972344D01*
G54D16*
G75*
G01X12702Y999334D02*
G03X400Y987031I0J-12303D01*
G01*
G54D16*
G75*
G01X254397Y987028D02*
G03X242094Y999331I-12303J0D01*
G01*
G54D16*
G75*
G01X242094Y872331D02*
G03X254397Y884634I0J12303D01*
G01*
G54D16*
G75*
G01X397Y884634D02*
G03X12700Y872331I12303J0D01*
G01*
G54D16*
G75*
G01X71106Y998999D02*
G03X184482Y998999I56688J56689D01*
G01*
G54D16*
G75*
G01X184482Y872663D02*
G03X71106Y872663I-56688J-56688D01*
G01*
G54D16*
X12702Y999334D02*
X70772Y999334D01*
X71106Y998999D01*
G54D16*
X242094Y999331D02*
X184814Y999331D01*
X184482Y998999D01*
G54D16*
X254397Y987028D02*
X254397Y884634D01*
G54D16*
X242094Y872331D02*
X184814Y872331D01*
X184482Y872663D01*
G54D16*
X12700Y872331D02*
X70774Y872331D01*
X71106Y872663D01*
G54D16*
G75*
G01X400Y986634D02*
G03X12702Y974331I12302J0D01*
G01*
G54D16*
G75*
G01X26194Y962025D02*
G03X13891Y974328I-12303J0D01*
G01*
G54D16*
G75*
G01X13891Y922735D02*
G03X26194Y935038I0J12303D01*
G01*
G54D16*
X12702Y974331D02*
X13888Y974331D01*
X13891Y974328D01*
G54D16*
X26194Y962025D02*
X26194Y935038D01*
G54D16*
G75*
G01X12700Y922734D02*
G03X397Y910431I0J-12303D01*
G01*
G54D16*
X13891Y922734D02*
X12700Y922734D01*
G54D16*
X397Y884634D02*
X397Y910431D01*
%LPD*%
G54D16*
G36*
X13099Y989134D02*
X24099Y989134D01*
X24099Y984134D01*
X13099Y984134D01*
X13099Y989134D01*
G37*
G36*
X14867Y988402D02*
X22645Y980623D01*
X19110Y977088D01*
X11332Y984866D01*
X14867Y988402D01*
G37*
G36*
X11332Y988402D02*
X19110Y996180D01*
X22645Y992644D01*
X14867Y984866D01*
X11332Y988402D01*
G37*
G54D17*
G36*
X74536Y926874D02*
X74536Y934874D01*
X78203Y934874D01*
X78203Y926874D01*
X74536Y926874D01*
G37*
G36*
X76369Y928707D02*
X84869Y928707D01*
X84869Y925040D01*
X76369Y925040D01*
X76369Y928707D01*
G37*
G36*
X78203Y926874D02*
X78203Y918874D01*
X74536Y918874D01*
X74536Y926874D01*
X78203Y926874D01*
G37*
G36*
X76369Y925040D02*
X67869Y925040D01*
X67869Y928707D01*
X76369Y928707D01*
X76369Y925040D01*
G37*
G54D18*
G36*
X73350Y969633D02*
X63450Y959734D01*
X58029Y965155D01*
X67929Y975054D01*
X73350Y969633D01*
G37*
G36*
X67929Y969633D02*
X49898Y987664D01*
X55319Y993086D01*
X73350Y975054D01*
X67929Y969633D01*
G37*
G36*
X67929Y975054D02*
X77828Y984954D01*
X83249Y979533D01*
X73350Y969633D01*
X67929Y975054D01*
G37*
G36*
X73350Y975054D02*
X91381Y957023D01*
X85960Y951602D01*
X67929Y969633D01*
X73350Y975054D01*
G37*
X13099Y986634D02*
G54D19*
D03*
X13097Y910431D02*
G54D19*
D03*
X13097Y885031D02*
G54D19*
D03*
X241697Y986631D02*
G54D19*
D03*
X241697Y961231D02*
G54D19*
D03*
X241697Y935831D02*
G54D19*
D03*
X241697Y910431D02*
G54D19*
D03*
X241697Y885031D02*
G54D19*
D03*
X76366Y926869D02*
G54D20*
D03*
X76366Y909869D02*
G54D20*
D03*
X38830Y910497D02*
G54D21*
D03*
G36*
X50330Y916497D02*
X61330Y916497D01*
X61330Y904497D01*
X50330Y904497D01*
X50330Y916497D01*
G37*
G54D16*
X13097Y910431D02*
X38764Y910431D01*
X38830Y910497D01*
G54D16*
X55830Y910497D02*
X75738Y910497D01*
X76366Y909869D01*
X76369Y926874D02*
G54D20*
D03*
X136460Y962422D02*
G54D21*
D03*
X119460Y962422D02*
G54D21*
D03*
X136460Y942182D02*
G54D21*
D03*
X119460Y942182D02*
G54D21*
D03*
G54D16*
X119460Y962422D02*
X119460Y942182D01*
X136460Y910432D02*
G54D21*
D03*
X119460Y910432D02*
G54D21*
D03*
G54D16*
X76366Y909869D02*
X118898Y909869D01*
X119460Y910432D01*
G54D16*
X136460Y910432D02*
X136460Y942182D01*
G54D22*
X78771Y964212D02*
X62508Y980476D01*
G54D22*
X176415Y964212D02*
X192678Y980475D01*
G54D16*
X136460Y962422D02*
X174625Y962422D01*
X184546Y972344D01*
G54D16*
X136460Y910432D02*
X180181Y910432D01*
X205978Y884634D01*
X241300Y884634D01*
X241697Y885031D01*
X211700Y935666D02*
G54D20*
D03*
X211700Y952666D02*
G54D20*
D03*
G54D16*
X241697Y935831D02*
X211072Y935831D01*
X210906Y935666D01*
G54D16*
X210906Y952666D02*
X204224Y952666D01*
X184546Y972344D01*
G54D23*
G75*
G01X12702Y999334D02*
G03X400Y987031I0J-12303D01*
G01*
G54D23*
G75*
G01X254397Y987028D02*
G03X242094Y999331I-12303J0D01*
G01*
G54D23*
G75*
G01X242094Y872331D02*
G03X254397Y884634I0J12303D01*
G01*
G54D23*
G75*
G01X397Y884634D02*
G03X12700Y872331I12303J0D01*
G01*
G54D23*
G75*
G01X71106Y998999D02*
G03X184482Y998999I56688J56689D01*
G01*
G54D23*
G75*
G01X184482Y872663D02*
G03X71106Y872663I-56688J-56688D01*
G01*
G54D23*
X12702Y999334D02*
X70772Y999334D01*
X71106Y998999D01*
G54D23*
X242094Y999331D02*
X184814Y999331D01*
X184482Y998999D01*
G54D23*
X254397Y987028D02*
X254397Y884634D01*
G54D23*
X242094Y872331D02*
X184814Y872331D01*
X184482Y872663D01*
G54D23*
X12700Y872331D02*
X70774Y872331D01*
X71106Y872663D01*
G54D23*
G75*
G01X400Y986634D02*
G03X12702Y974331I12302J0D01*
G01*
G54D23*
G75*
G01X26194Y962025D02*
G03X13891Y974328I-12303J0D01*
G01*
G54D23*
G75*
G01X13891Y922735D02*
G03X26194Y935038I0J12303D01*
G01*
G54D23*
X12702Y974331D02*
X13888Y974331D01*
X13891Y974328D01*
G54D23*
X26194Y962025D02*
X26194Y935038D01*
G54D23*
G75*
G01X12700Y922734D02*
G03X397Y910431I0J-12303D01*
G01*
G54D23*
X13891Y922734D02*
X12700Y922734D01*
G54D23*
X397Y884634D02*
X397Y910431D01*
M02*
