%FSLAX34Y34*%
%MOMM*%
%LNCOPPER_BOTTOM*%
G71*
G01*
%ADD10C, 0.10*%
%ADD11C, 0.15*%
%ADD12C, 0.16*%
%ADD13C, 0.11*%
%LPD*%
G54D10*
X26467Y992473D02*
X27533Y992473D01*
X27533Y990806D01*
X27267Y990140D01*
X26733Y989806D01*
X26200Y989806D01*
X25667Y990140D01*
X25400Y990806D01*
X25400Y994140D01*
X25667Y994806D01*
X26200Y995140D01*
X26733Y995140D01*
X27267Y994806D01*
X27533Y994140D01*
G54D10*
X29400Y989806D02*
X29400Y995140D01*
X31533Y989806D01*
X31533Y995140D01*
G54D10*
X33400Y989806D02*
X33400Y995140D01*
X34733Y995140D01*
X35267Y994806D01*
X35533Y994140D01*
X35533Y990806D01*
X35267Y990140D01*
X34733Y989806D01*
X33400Y989806D01*
G54D10*
X18653Y900874D02*
X18920Y901541D01*
X19453Y901874D01*
X19986Y901874D01*
X20520Y901541D01*
X20786Y900874D01*
X20786Y900207D01*
X20520Y899541D01*
X19986Y899207D01*
X20520Y898874D01*
X20786Y898207D01*
X20786Y897541D01*
X20520Y896874D01*
X19986Y896541D01*
X19453Y896541D01*
X18920Y896874D01*
X18653Y897541D01*
G54D10*
X22653Y899541D02*
X23720Y896541D01*
X24786Y899541D01*
G54D10*
X26653Y900874D02*
X26920Y901541D01*
X27453Y901874D01*
X27986Y901874D01*
X28520Y901541D01*
X28786Y900874D01*
X28786Y900207D01*
X28520Y899541D01*
X27986Y899207D01*
X28520Y898874D01*
X28786Y898207D01*
X28786Y897541D01*
X28520Y896874D01*
X27986Y896541D01*
X27453Y896541D01*
X26920Y896874D01*
X26653Y897541D01*
G54D10*
X220266Y988186D02*
X220532Y988853D01*
X221066Y989186D01*
X221599Y989186D01*
X222132Y988853D01*
X222399Y988186D01*
X222399Y987520D01*
X222132Y986853D01*
X221599Y986520D01*
X222132Y986186D01*
X222399Y985520D01*
X222399Y984853D01*
X222132Y984186D01*
X221599Y983853D01*
X221066Y983853D01*
X220532Y984186D01*
X220266Y984853D01*
G54D10*
X224266Y986853D02*
X225332Y983853D01*
X226399Y986853D01*
G54D10*
X228266Y988186D02*
X228532Y988853D01*
X229066Y989186D01*
X229599Y989186D01*
X230132Y988853D01*
X230399Y988186D01*
X230399Y987520D01*
X230132Y986853D01*
X229599Y986520D01*
X230132Y986186D01*
X230399Y985520D01*
X230399Y984853D01*
X230132Y984186D01*
X229599Y983853D01*
X229066Y983853D01*
X228532Y984186D01*
X228266Y984853D01*
G54D10*
X203597Y920353D02*
X203597Y925686D01*
G54D10*
X205464Y920353D02*
X205464Y925686D01*
X207597Y920353D01*
X207597Y925686D01*
G54D10*
X210531Y920353D02*
X210531Y925686D01*
G54D10*
X209464Y925686D02*
X211597Y925686D01*
G54D10*
X213464Y923686D02*
X214797Y925686D01*
X214797Y920353D01*
G54D10*
X219384Y925686D02*
X218851Y925353D01*
X218584Y924686D01*
X218584Y921353D01*
X218851Y920686D01*
X219384Y920353D01*
G54D10*
X221251Y924686D02*
X221518Y925353D01*
X222051Y925686D01*
X222584Y925686D01*
X223118Y925353D01*
X223384Y924686D01*
X223384Y924020D01*
X223118Y923353D01*
X222584Y923020D01*
X223118Y922686D01*
X223384Y922020D01*
X223384Y921353D01*
X223118Y920686D01*
X222584Y920353D01*
X222051Y920353D01*
X221518Y920686D01*
X221251Y921353D01*
G54D10*
X227384Y924686D02*
X227118Y925353D01*
X226584Y925686D01*
X226051Y925686D01*
X225518Y925353D01*
X225251Y924686D01*
X225251Y923020D01*
X225251Y922686D01*
X226051Y923353D01*
X226584Y923353D01*
X227118Y923020D01*
X227384Y922353D01*
X227384Y921353D01*
X227118Y920686D01*
X226584Y920353D01*
X226051Y920353D01*
X225518Y920686D01*
X225251Y921353D01*
X225251Y923020D01*
G54D10*
X229251Y925686D02*
X229784Y925353D01*
X230051Y924686D01*
X230051Y921353D01*
X229784Y920686D01*
X229251Y920353D01*
G54D10*
X208756Y890191D02*
X210090Y895524D01*
X211423Y890191D01*
G54D10*
X209290Y892191D02*
X210890Y892191D01*
G54D10*
X213290Y890191D02*
X213290Y895524D01*
X214624Y895524D01*
X215157Y895191D01*
X215424Y894524D01*
X215424Y891191D01*
X215157Y890524D01*
X214624Y890191D01*
X213290Y890191D01*
G54D10*
X220010Y895524D02*
X219477Y895191D01*
X219210Y894524D01*
X219210Y891191D01*
X219477Y890524D01*
X220010Y890191D01*
G54D10*
X221877Y894524D02*
X222144Y895191D01*
X222677Y895524D01*
X223211Y895524D01*
X223744Y895191D01*
X224011Y894524D01*
X224011Y893857D01*
X223744Y893191D01*
X223211Y892857D01*
X223744Y892524D01*
X224011Y891857D01*
X224011Y891191D01*
X223744Y890524D01*
X223211Y890191D01*
X222677Y890191D01*
X222144Y890524D01*
X221877Y891191D01*
G54D10*
X228011Y890191D02*
X225877Y890191D01*
X225877Y890524D01*
X226144Y891191D01*
X227744Y893191D01*
X228011Y893857D01*
X228011Y894524D01*
X227744Y895191D01*
X227211Y895524D01*
X226677Y895524D01*
X226144Y895191D01*
X225877Y894524D01*
G54D10*
X229877Y895524D02*
X230411Y895191D01*
X230677Y894524D01*
X230677Y891191D01*
X230411Y890524D01*
X229877Y890191D01*
G54D11*
X67366Y935369D02*
X85366Y935369D01*
X85366Y901369D01*
X67366Y901369D01*
X67366Y935369D01*
G54D11*
X30330Y901497D02*
X30330Y919497D01*
X64330Y919497D01*
X64330Y901497D01*
X30330Y901497D01*
G54D10*
X31762Y921544D02*
X31762Y926877D01*
X30162Y923544D01*
X30162Y922877D01*
X32296Y922877D01*
G54D10*
X34162Y926877D02*
X36296Y926877D01*
X36029Y926210D01*
X35496Y925210D01*
X34962Y923877D01*
X34696Y922877D01*
X34696Y921544D01*
G54D10*
X40296Y925877D02*
X40296Y922544D01*
X40029Y921877D01*
X39496Y921544D01*
X38962Y921544D01*
X38429Y921877D01*
X38162Y922544D01*
X38162Y925877D01*
X38429Y926544D01*
X38962Y926877D01*
X39496Y926877D01*
X40029Y926544D01*
X40296Y925877D01*
G54D10*
X43229Y924210D02*
X44029Y923544D01*
X44296Y922877D01*
X44296Y921544D01*
G54D10*
X42162Y921544D02*
X42162Y926877D01*
X43496Y926877D01*
X44029Y926544D01*
X44296Y925877D01*
X44296Y925210D01*
X44029Y924544D01*
X43496Y924210D01*
X42162Y924210D01*
G54D10*
X72641Y894159D02*
X72641Y899493D01*
X71041Y896159D01*
X71041Y895493D01*
X73174Y895493D01*
G54D10*
X75041Y899493D02*
X77174Y899493D01*
X76907Y898826D01*
X76374Y897826D01*
X75841Y896493D01*
X75574Y895493D01*
X75574Y894159D01*
G54D10*
X81174Y898493D02*
X81174Y895159D01*
X80907Y894493D01*
X80374Y894159D01*
X79841Y894159D01*
X79307Y894493D01*
X79041Y895159D01*
X79041Y898493D01*
X79307Y899159D01*
X79841Y899493D01*
X80374Y899493D01*
X80907Y899159D01*
X81174Y898493D01*
G54D10*
X84107Y896826D02*
X84907Y896159D01*
X85174Y895493D01*
X85174Y894159D01*
G54D10*
X83041Y894159D02*
X83041Y899493D01*
X84374Y899493D01*
X84907Y899159D01*
X85174Y898493D01*
X85174Y897826D01*
X84907Y897159D01*
X84374Y896826D01*
X83041Y896826D01*
G54D11*
X144960Y971422D02*
X144960Y953422D01*
X110960Y953422D01*
X110960Y971422D01*
X144960Y971422D01*
G54D11*
X144960Y951182D02*
X144960Y933182D01*
X110960Y933182D01*
X110960Y951182D01*
X144960Y951182D01*
G54D10*
X111522Y929243D02*
X112855Y931243D01*
X112855Y925909D01*
G54D10*
X116855Y930243D02*
X116855Y926909D01*
X116589Y926243D01*
X116055Y925909D01*
X115522Y925909D01*
X114989Y926243D01*
X114722Y926909D01*
X114722Y930243D01*
X114989Y930909D01*
X115522Y931243D01*
X116055Y931243D01*
X116589Y930909D01*
X116855Y930243D01*
G54D10*
X120855Y930243D02*
X120855Y926909D01*
X120589Y926243D01*
X120055Y925909D01*
X119522Y925909D01*
X118989Y926243D01*
X118722Y926909D01*
X118722Y930243D01*
X118989Y930909D01*
X119522Y931243D01*
X120055Y931243D01*
X120589Y930909D01*
X120855Y930243D01*
G54D10*
X122722Y925909D02*
X122722Y931243D01*
G54D10*
X122722Y927576D02*
X124855Y931243D01*
G54D10*
X123522Y928576D02*
X124855Y925909D01*
G54D11*
X144960Y919432D02*
X144960Y901432D01*
X110960Y901432D01*
X110960Y919432D01*
X144960Y919432D01*
G54D10*
X134144Y925877D02*
X134410Y926544D01*
X134944Y926877D01*
X135477Y926877D01*
X136010Y926544D01*
X136277Y925877D01*
X136277Y925210D01*
X136010Y924544D01*
X135477Y924210D01*
X136010Y923877D01*
X136277Y923210D01*
X136277Y922544D01*
X136010Y921877D01*
X135477Y921544D01*
X134944Y921544D01*
X134410Y921877D01*
X134144Y922544D01*
G54D10*
X140277Y921544D02*
X138144Y921544D01*
X138144Y921877D01*
X138410Y922544D01*
X140010Y924544D01*
X140277Y925210D01*
X140277Y925877D01*
X140010Y926544D01*
X139477Y926877D01*
X138944Y926877D01*
X138410Y926544D01*
X138144Y925877D01*
G54D10*
X142144Y921544D02*
X142144Y926877D01*
G54D10*
X142144Y923210D02*
X144277Y926877D01*
G54D10*
X142944Y924210D02*
X144277Y921544D01*
G54D11*
X220700Y927166D02*
X202700Y927166D01*
X202700Y961166D01*
X220700Y961166D01*
X220700Y927166D01*
G54D10*
X211138Y966152D02*
X212471Y968152D01*
X212471Y962819D01*
G54D10*
X216471Y967152D02*
X216471Y963819D01*
X216204Y963152D01*
X215671Y962819D01*
X215138Y962819D01*
X214604Y963152D01*
X214338Y963819D01*
X214338Y967152D01*
X214604Y967819D01*
X215138Y968152D01*
X215671Y968152D01*
X216204Y967819D01*
X216471Y967152D01*
G54D10*
X218338Y962819D02*
X218338Y968152D01*
G54D10*
X218338Y964485D02*
X220471Y968152D01*
G54D10*
X219138Y965485D02*
X220471Y962819D01*
G54D10*
X147241Y968772D02*
X147241Y974105D01*
X148574Y974105D01*
X149107Y973772D01*
X149374Y973105D01*
X149374Y972438D01*
X149107Y971772D01*
X148574Y971438D01*
X147241Y971438D01*
G54D10*
X151241Y968772D02*
X151241Y974105D01*
G54D10*
X153108Y974105D02*
X153108Y968772D01*
X154974Y968772D01*
G54D10*
X158975Y973105D02*
X158975Y969772D01*
X158708Y969105D01*
X158175Y968772D01*
X157642Y968772D01*
X157108Y969105D01*
X156842Y969772D01*
X156842Y973105D01*
X157108Y973772D01*
X157642Y974105D01*
X158175Y974105D01*
X158708Y973772D01*
X158975Y973105D01*
G54D10*
X161908Y968772D02*
X161908Y974105D01*
G54D10*
X160842Y974105D02*
X162975Y974105D01*
G54D12*
X31750Y940197D02*
X31750Y949086D01*
X33972Y949086D01*
X34861Y948530D01*
X35306Y947419D01*
X35306Y941864D01*
X34861Y940752D01*
X33972Y940197D01*
X31750Y940197D01*
G54D12*
X38417Y940197D02*
X38417Y949086D01*
X40639Y949086D01*
X41528Y948530D01*
X41973Y947419D01*
X41973Y946308D01*
X41528Y945197D01*
X40639Y944641D01*
X38417Y944641D01*
G54D12*
X46862Y940197D02*
X46862Y949086D01*
G54D12*
X45084Y949086D02*
X48640Y949086D01*
G54D12*
X51751Y940197D02*
X51751Y949086D01*
X53973Y949086D01*
X54862Y948530D01*
X55307Y947419D01*
X55307Y946308D01*
X54862Y945197D01*
X53973Y944641D01*
X51751Y944641D01*
G54D12*
X61618Y941864D02*
X62062Y940752D01*
X62951Y940197D01*
X63840Y940197D01*
X64729Y940752D01*
X65174Y941864D01*
X65174Y942975D01*
X64729Y944086D01*
X63840Y944641D01*
X62951Y944641D01*
X62062Y945197D01*
X61618Y946308D01*
X61618Y947419D01*
X62062Y948530D01*
X62951Y949086D01*
X63840Y949086D01*
X64729Y948530D01*
X65174Y947419D01*
G54D12*
X68285Y945197D02*
X70063Y940197D01*
X71841Y945197D01*
G54D12*
X70063Y940197D02*
X69618Y938530D01*
X69174Y937975D01*
X68729Y937975D01*
G54D12*
X74952Y940752D02*
X75841Y940197D01*
X76730Y940197D01*
X77619Y940752D01*
X77619Y941864D01*
X77174Y942419D01*
X75396Y942975D01*
X74952Y943530D01*
X74952Y944641D01*
X75841Y945197D01*
X76730Y945197D01*
X77619Y944641D01*
G54D12*
X81619Y949086D02*
X81619Y940752D01*
X82063Y940197D01*
X82508Y940419D01*
G54D12*
X80730Y945197D02*
X82508Y945197D01*
G54D12*
X88286Y940752D02*
X87575Y940197D01*
X86686Y940197D01*
X85797Y940752D01*
X85619Y941864D01*
X85619Y943752D01*
X86063Y944864D01*
X86952Y945197D01*
X87841Y944864D01*
X88286Y944086D01*
X88286Y942975D01*
X85619Y942975D01*
G54D12*
X91397Y940197D02*
X91397Y945197D01*
G54D12*
X91397Y944308D02*
X92286Y945197D01*
X93175Y944864D01*
X93619Y944086D01*
X93619Y940197D01*
G54D12*
X93619Y944308D02*
X94508Y945197D01*
X95397Y944864D01*
X95841Y944086D01*
X95841Y940197D01*
G54D13*
X27497Y876840D02*
X25008Y876840D01*
X25008Y877229D01*
X25319Y878006D01*
X27186Y880340D01*
X27497Y881118D01*
X27497Y881895D01*
X27186Y882673D01*
X26564Y883062D01*
X25941Y883062D01*
X25319Y882673D01*
X25008Y881895D01*
G54D13*
X32164Y881895D02*
X32164Y878006D01*
X31853Y877229D01*
X31231Y876840D01*
X30608Y876840D01*
X29986Y877229D01*
X29675Y878006D01*
X29675Y881895D01*
X29986Y882673D01*
X30608Y883062D01*
X31231Y883062D01*
X31853Y882673D01*
X32164Y881895D01*
G54D13*
X36831Y876840D02*
X34342Y876840D01*
X34342Y877229D01*
X34653Y878006D01*
X36520Y880340D01*
X36831Y881118D01*
X36831Y881895D01*
X36520Y882673D01*
X35898Y883062D01*
X35275Y883062D01*
X34653Y882673D01*
X34342Y881895D01*
G54D13*
X41498Y881895D02*
X41498Y878006D01*
X41187Y877229D01*
X40565Y876840D01*
X39942Y876840D01*
X39320Y877229D01*
X39009Y878006D01*
X39009Y881895D01*
X39320Y882673D01*
X39942Y883062D01*
X40565Y883062D01*
X41187Y882673D01*
X41498Y881895D01*
G54D13*
X43676Y879562D02*
X46165Y879562D01*
G54D13*
X50832Y881895D02*
X50832Y878006D01*
X50521Y877229D01*
X49899Y876840D01*
X49276Y876840D01*
X48654Y877229D01*
X48343Y878006D01*
X48343Y881895D01*
X48654Y882673D01*
X49276Y883062D01*
X49899Y883062D01*
X50521Y882673D01*
X50832Y881895D01*
G54D13*
X55499Y883062D02*
X53010Y883062D01*
X53010Y880340D01*
X53321Y880340D01*
X53943Y880729D01*
X54566Y880729D01*
X55188Y880340D01*
X55499Y879562D01*
X55499Y878006D01*
X55188Y877229D01*
X54566Y876840D01*
X53943Y876840D01*
X53321Y877229D01*
X53010Y878006D01*
G54D13*
X57677Y879562D02*
X60166Y879562D01*
G54D13*
X64833Y876840D02*
X62344Y876840D01*
X62344Y877229D01*
X62655Y878006D01*
X64522Y880340D01*
X64833Y881118D01*
X64833Y881895D01*
X64522Y882673D01*
X63900Y883062D01*
X63277Y883062D01*
X62655Y882673D01*
X62344Y881895D01*
G54D13*
X69500Y876840D02*
X67011Y876840D01*
X67011Y877229D01*
X67322Y878006D01*
X69189Y880340D01*
X69500Y881118D01*
X69500Y881895D01*
X69189Y882673D01*
X68567Y883062D01*
X67944Y883062D01*
X67322Y882673D01*
X67011Y881895D01*
G54D13*
X27583Y885571D02*
X25405Y885571D01*
X25405Y891793D01*
X27583Y891793D01*
G54D13*
X25405Y888682D02*
X27583Y888682D01*
G54D13*
X29761Y888293D02*
X32250Y888293D01*
G54D13*
X35983Y888838D02*
X35361Y889071D01*
X34739Y888838D01*
X34428Y888060D01*
X34428Y886504D01*
X34739Y885727D01*
X35361Y885571D01*
X35983Y885727D01*
G54D13*
X38162Y888682D02*
X38784Y889071D01*
X39531Y889071D01*
X40029Y888293D01*
X40029Y885571D01*
G54D13*
X40029Y886738D02*
X39717Y887515D01*
X39095Y887671D01*
X38473Y887515D01*
X38162Y886738D01*
X38286Y885960D01*
X38784Y885571D01*
X39095Y885571D01*
X39220Y885571D01*
X39717Y885960D01*
X40029Y886738D01*
G54D13*
X42207Y885571D02*
X42207Y889071D01*
G54D13*
X42207Y888293D02*
X42829Y889071D01*
X43451Y889071D01*
G54D13*
X49113Y885571D02*
X49113Y891793D01*
G54D13*
X47869Y891793D02*
X50358Y891793D01*
G54D13*
X52536Y889071D02*
X53780Y885571D01*
X55025Y889071D01*
G54D13*
X53780Y885571D02*
X53469Y884404D01*
X53158Y884015D01*
X52847Y884015D01*
G54D13*
X57203Y889071D02*
X57203Y884015D01*
G54D13*
X57203Y886738D02*
X57514Y885727D01*
X58136Y885571D01*
X58758Y885727D01*
X59070Y886504D01*
X59070Y888060D01*
X58758Y888838D01*
X58136Y889071D01*
X57514Y888838D01*
X57203Y887904D01*
G54D13*
X63115Y885960D02*
X62617Y885571D01*
X61995Y885571D01*
X61372Y885960D01*
X61248Y886738D01*
X61248Y888060D01*
X61559Y888838D01*
X62181Y889071D01*
X62803Y888838D01*
X63115Y888293D01*
X63115Y887515D01*
X61248Y887515D01*
G54D13*
X67782Y885571D02*
X65293Y885571D01*
X65293Y885960D01*
X65604Y886738D01*
X67471Y889071D01*
X67782Y889849D01*
X67782Y890627D01*
X67471Y891404D01*
X66848Y891793D01*
X66226Y891793D01*
X65604Y891404D01*
X65293Y890627D01*
G54D13*
X72200Y885571D02*
X72200Y891793D01*
X73755Y887904D01*
X75311Y891793D01*
X75311Y885571D01*
G54D13*
X77489Y885571D02*
X77489Y885571D01*
M02*
